<?xml version="1.0" encoding="utf-8"?>
<!-- Generator: Adobe Illustrator 16.0.0, SVG Export Plug-In . SVG Version: 6.00 Build 0)  -->
<!DOCTYPE svg PUBLIC "-//W3C//DTD SVG 1.1//EN" "http://www.w3.org/Graphics/SVG/1.1/DTD/svg11.dtd">
<svg version="1.1" id="Layer_1" xmlns="http://www.w3.org/2000/svg" xmlns:xlink="http://www.w3.org/1999/xlink" x="0px" y="0px"
	 width="24px" height="24px" viewBox="37.875 28.625 24 24" enable-background="new 37.875 28.625 24 24" xml:space="preserve">
<path fill="#FFFFFF" d="M59.992,39.572v-8.831l-2.868,2.869c-1.844-1.875-4.39-2.985-7.128-2.985c-5.514,0-10,4.486-10,10
	s4.486,10,10,10c4.076,0,7.708-2.437,9.254-6.207c0.429-1.043-0.07-2.236-1.113-2.664c-1.044-0.429-2.236,0.071-2.665,1.114
	c-0.915,2.231-3.064,3.673-5.476,3.673c-3.262,0-5.916-2.654-5.916-5.916s2.654-5.916,5.916-5.916c1.631,0,3.148,0.665,4.241,1.789
	l-3.074,3.074H59.992z"/>
</svg>
