<?xml version="1.0" encoding="utf-8"?>
<!-- Generator: Adobe Illustrator 17.0.0, SVG Export Plug-In . SVG Version: 6.00 Build 0)  -->
<!DOCTYPE svg PUBLIC "-//W3C//DTD SVG 1.1//EN" "http://www.w3.org/Graphics/SVG/1.1/DTD/svg11.dtd">
<svg version="1.1" id="Layer_1" xmlns="http://www.w3.org/2000/svg" xmlns:xlink="http://www.w3.org/1999/xlink" x="0px" y="0px"
	 width="215px" height="79px" viewBox="0 0 215 79" enable-background="new 0 0 215 79" xml:space="preserve">
<g>
	<line fill="none" stroke="#666666" stroke-linecap="round" stroke-miterlimit="10" x1="43.5" y1="50" x2="43.5" y2="57"/>
	<line fill="none" stroke="#666666" stroke-linecap="round" stroke-miterlimit="10" x1="85.5" y1="50" x2="85.5" y2="57"/>
	<line fill="none" stroke="#666666" stroke-linecap="round" stroke-miterlimit="10" x1="127.5" y1="50" x2="127.5" y2="57"/>
	<line fill="none" stroke="#666666" stroke-linecap="round" stroke-miterlimit="10" x1="169.5" y1="50" x2="169.5" y2="57"/>
</g>
<line fill="none" stroke="#666666" stroke-linecap="round" stroke-miterlimit="10" x1="1.5" y1="50" x2="1.5" y2="57"/>
<line fill="none" stroke="#666666" stroke-linecap="round" stroke-miterlimit="10" x1="211.5" y1="50" x2="211.5" y2="57"/>
<line fill="none" stroke="#1A1A1A" stroke-linecap="round" stroke-miterlimit="10" x1="4" y1="53.5" x2="41" y2="53.5"/>
<line fill="none" stroke="#1A1A1A" stroke-linecap="round" stroke-miterlimit="10" x1="88" y1="53.5" x2="125" y2="53.5"/>
<line fill="none" stroke="#1A1A1A" stroke-linecap="round" stroke-miterlimit="10" x1="172" y1="53.5" x2="209" y2="53.5"/>
<g>
	<line fill="none" stroke="#666666" stroke-linecap="round" stroke-miterlimit="10" x1="0" y1="51.5" x2="213" y2="51.5"/>
	<line fill="none" stroke="#666666" stroke-linecap="round" stroke-miterlimit="10" x1="0" y1="55.5" x2="213" y2="55.5"/>
</g>
<g>
	<path d="M9.256,10.688C9.004,10.141,9.34,9.595,9.971,9.595h1.68c0.379,0,0.631,0.252,0.715,0.462l10.459,23.524h0.168
		l10.461-23.524c0.084-0.21,0.378-0.462,0.714-0.462h1.681c0.629,0,0.966,0.546,0.714,1.093l-12.772,28.27
		c-0.126,0.252-0.378,0.462-0.714,0.462h-0.421c-0.293,0-0.588-0.21-0.713-0.462L9.256,10.688z"/>
	<path d="M42.68,10.393c0-0.42,0.336-0.798,0.799-0.798H60.03c0.462,0,0.799,0.378,0.799,0.798v1.219
		c0,0.42-0.337,0.798-0.799,0.798H45.915v10.25h12.056c0.42,0,0.799,0.378,0.799,0.798v1.219c0,0.462-0.379,0.798-0.799,0.798
		H45.915v10.712h14.114c0.462,0,0.799,0.378,0.799,0.798v1.218c0,0.421-0.337,0.799-0.799,0.799h-16.55
		c-0.463,0-0.799-0.378-0.799-0.799V10.393z"/>
	<path d="M80.97,9.175c4.243,0,7.31,1.47,10.165,3.907c0.337,0.336,0.379,0.84,0.043,1.176c-0.379,0.378-0.84,0.798-1.176,1.176
		c-0.379,0.42-0.631,0.379-1.093-0.042c-2.143-1.89-5.167-3.276-7.981-3.276c-6.637,0-11.678,5.545-11.678,12.057
		c0,6.469,5.041,12.14,11.678,12.14c4.621,0,7.561-1.765,7.561-1.765v-5.881h-4.83c-0.462,0-0.799-0.336-0.799-0.756v-1.555
		c0-0.462,0.337-0.798,0.799-0.798h7.268c0.42,0,0.756,0.378,0.756,0.798v9.62c0,0.21-0.168,0.546-0.336,0.672
		c0,0-4.285,2.772-10.376,2.772c-8.401,0-15.165-6.68-15.165-15.08C65.805,15.938,72.568,9.175,80.97,9.175z"/>
	<path d="M96.405,10.688c-0.252-0.547,0.084-1.093,0.714-1.093H98.8c0.378,0,0.63,0.252,0.714,0.462l10.46,23.524h0.168
		l10.46-23.524c0.084-0.21,0.378-0.462,0.715-0.462h1.68c0.63,0,0.967,0.546,0.715,1.093l-12.771,28.271
		c-0.125,0.252-0.377,0.462-0.714,0.462h-0.42c-0.294,0-0.588-0.21-0.714-0.462L96.405,10.688z"/>
	<path d="M127.271,5.184c-0.168-0.336,0-0.672,0.252-0.798l6.301-3.528c0.252-0.168,0.883-0.252,1.092,0.126l0.757,1.513
		c0.168,0.336,0.084,0.756-0.253,0.882l-6.763,2.814c-0.588,0.252-0.798,0.252-0.966-0.084L127.271,5.184z M129.834,10.393
		c0-0.42,0.377-0.798,0.798-0.798h1.681c0.42,0,0.798,0.378,0.798,0.798v27.809c0,0.421-0.378,0.799-0.798,0.799h-1.681
		c-0.421,0-0.798-0.378-0.798-0.799V10.393z"/>
	<path d="M140.972,34.59c0.21-0.252,0.42-0.547,0.63-0.799c0.42-0.546,0.883-0.883,1.471-0.378c0.294,0.252,3.36,3.192,7.1,3.192
		c3.402,0,5.629-2.143,5.629-4.621c0-2.898-2.521-4.621-7.352-6.637c-4.621-2.017-7.394-3.906-7.394-8.695
		c0-2.857,2.269-7.478,8.947-7.478c4.117,0,7.184,2.142,7.184,2.142c0.252,0.127,0.756,0.631,0.252,1.429
		c-0.168,0.253-0.336,0.546-0.504,0.798c-0.378,0.589-0.798,0.757-1.47,0.379c-0.295-0.168-2.941-1.933-5.504-1.933
		c-4.453,0-5.797,2.856-5.797,4.62c0,2.814,2.143,4.453,5.671,5.924c5.671,2.311,9.325,4.453,9.325,9.326
		c0,4.368-4.158,7.561-9.072,7.561c-4.957,0-8.318-2.898-8.864-3.402C140.888,35.724,140.467,35.387,140.972,34.59z"/>
	<path d="M166.52,10.393c0-0.42,0.378-0.798,0.799-0.798h1.68c0.42,0,0.799,0.378,0.799,0.798v27.809
		c0,0.421-0.379,0.799-0.799,0.799h-1.68c-0.421,0-0.799-0.378-0.799-0.799V10.393z"/>
	<path d="M179.561,10.393c0-0.42,0.336-0.798,0.799-0.798h10.879c5.041,0,9.158,3.948,9.158,8.948c0,3.864-2.562,7.099-6.217,8.568
		l5.754,10.67c0.295,0.547,0,1.219-0.713,1.219h-2.143c-0.379,0-0.588-0.21-0.672-0.378l-5.588-11.132h-8.023v10.711
		c0,0.421-0.378,0.799-0.798,0.799h-1.638c-0.463,0-0.799-0.378-0.799-0.799L179.561,10.393L179.561,10.393z M191.029,24.717
		c3.234,0,6.049-2.688,6.049-6.133c0-3.192-2.814-5.923-6.049-5.923h-8.15v12.056H191.029z"/>
</g>
<g>
	<path d="M14.829,71.999l1.173,4.403c0.085,0.331,0.127,0.637,0.127,0.637h0.017c0,0,0.025-0.314,0.11-0.637l1.105-4.403h0.867
		L16.656,78h-0.978l-1.037-3.893c-0.102-0.383-0.179-0.851-0.179-0.851h-0.017c0,0-0.076,0.468-0.178,0.851L13.23,78h-0.977
		l-1.53-6.001h0.867l1.062,4.403c0.076,0.322,0.11,0.637,0.11,0.637h0.017c0,0,0.042-0.306,0.127-0.637l1.173-4.403H14.829z"/>
	<path d="M21.472,71.999h0.841v2.635h3.111v-2.635h0.841V78h-0.841v-2.635h-3.111V78h-0.841V71.999z"/>
	<path d="M30.104,71.999h3.485v0.731h-2.644v1.878h2.15v0.731h-2.15v1.929h2.788V78h-3.629V71.999z"/>
	<path d="M37.047,71.999h1.836c0.629,0,0.892,0.052,1.122,0.137c0.612,0.229,1.012,0.833,1.012,1.623
		c0,0.765-0.425,1.411-1.08,1.623v0.018c0,0,0.068,0.076,0.179,0.271L41.39,78h-0.952l-1.266-2.389h-1.284V78h-0.841V71.999z
		 M39.095,74.881c0.654,0,1.062-0.417,1.062-1.088c0-0.442-0.17-0.757-0.476-0.927c-0.162-0.085-0.357-0.136-0.824-0.136h-0.969
		v2.15H39.095z"/>
	<path d="M44.679,71.999h3.485v0.731H45.52v1.878h2.15v0.731h-2.15v1.929h2.788V78h-3.629V71.999z"/>
	<path d="M58.139,71.999h3.485v0.731H58.98v1.878h2.15v0.731h-2.15v1.929h2.788V78h-3.629V71.999z"/>
	<path d="M64.585,71.999h0.91l1.487,4.241c0.11,0.323,0.229,0.824,0.229,0.824h0.017c0,0,0.119-0.501,0.229-0.824l1.504-4.241h0.892
		L67.645,78h-0.842L64.585,71.999z"/>
	<path d="M72.951,71.999h3.485v0.731h-2.644v1.878h2.15v0.731h-2.15v1.929h2.788V78h-3.629V71.999z"/>
	<path d="M79.893,71.999h1.836c0.629,0,0.892,0.052,1.122,0.137c0.612,0.229,1.012,0.833,1.012,1.623
		c0,0.765-0.425,1.411-1.08,1.623v0.018c0,0,0.068,0.076,0.179,0.271L84.236,78h-0.952l-1.266-2.389h-1.284V78h-0.841V71.999z
		 M81.941,74.881c0.654,0,1.062-0.417,1.062-1.088c0-0.442-0.17-0.757-0.476-0.927c-0.162-0.085-0.357-0.136-0.824-0.136h-0.969
		v2.15H81.941z"/>
	<path d="M88.613,75.459l-2.015-3.46h0.952l1.113,1.972c0.187,0.332,0.365,0.757,0.365,0.757h0.017c0,0,0.179-0.416,0.366-0.757
		l1.096-1.972h0.952l-2.006,3.46V78h-0.841V75.459z"/>
	<path d="M100.373,75.977h0.833v0.256c0,0.815,0.476,1.096,0.952,1.096c0.468,0,0.935-0.271,0.935-1.062V72.73h-1.513v-0.731h2.354
		v4.275c0,1.301-0.909,1.827-1.785,1.827s-1.776-0.535-1.776-1.827V75.977z"/>
	<path d="M110.408,71.897c1.733,0,3.076,1.334,3.076,3.06c0,1.768-1.343,3.145-3.076,3.145c-1.734,0-3.085-1.377-3.085-3.145
		C107.323,73.231,108.674,71.897,110.408,71.897z M110.408,77.328c1.224,0,2.21-1.02,2.21-2.371c0-1.309-0.986-2.295-2.21-2.295
		c-1.225,0-2.219,0.986-2.219,2.295C108.189,76.309,109.184,77.328,110.408,77.328z"/>
	<path d="M116.856,71.999h0.841v3.876c0,0.918,0.596,1.453,1.513,1.453c0.927,0,1.53-0.535,1.53-1.47v-3.859h0.842v3.876
		c0,1.334-0.961,2.227-2.363,2.227s-2.362-0.893-2.362-2.227V71.999z"/>
	<path d="M125.361,71.999h1.836c0.629,0,0.893,0.052,1.122,0.137c0.612,0.229,1.012,0.833,1.012,1.623
		c0,0.765-0.426,1.411-1.08,1.623v0.018c0,0,0.068,0.076,0.179,0.271L129.705,78h-0.952l-1.267-2.389h-1.283V78h-0.842V71.999z
		 M127.41,74.881c0.654,0,1.062-0.417,1.062-1.088c0-0.442-0.17-0.757-0.477-0.927c-0.161-0.085-0.356-0.136-0.824-0.136h-0.969
		v2.15H127.41z"/>
	<path d="M132.993,71.999h0.833l2.669,3.901c0.221,0.323,0.501,0.867,0.501,0.867h0.018c0,0-0.06-0.535-0.06-0.867v-3.901h0.842V78
		h-0.825l-2.677-3.893c-0.221-0.332-0.502-0.876-0.502-0.876h-0.017c0,0,0.06,0.536,0.06,0.876V78h-0.842V71.999z"/>
	<path d="M141.634,71.999h3.484v0.731h-2.644v1.878h2.15v0.731h-2.15v1.929h2.788V78h-3.629V71.999z"/>
	<path d="M150.104,75.459l-2.015-3.46h0.952l1.113,1.972c0.188,0.332,0.365,0.757,0.365,0.757h0.018c0,0,0.179-0.416,0.365-0.757
		l1.097-1.972h0.952l-2.006,3.46V78h-0.842V75.459z"/>
	<path d="M162.425,71.999h2.099c1.012,0,1.743,0.562,1.743,1.53c0,0.586-0.289,1.054-0.748,1.292v0.017
		c0.629,0.188,0.985,0.782,0.985,1.453c0,1.131-0.875,1.709-1.929,1.709h-2.15V71.999z M164.523,74.523
		c0.544,0,0.885-0.382,0.885-0.909s-0.323-0.884-0.901-0.884h-1.241v1.793H164.523z M164.617,77.269c0.646,0,1.028-0.407,1.028-1.02
		s-0.408-1.028-1.037-1.028h-1.343v2.048H164.617z"/>
	<path d="M170.041,71.999h3.485v0.731h-2.644v1.878h2.15v0.731h-2.15v1.929h2.787V78h-3.629V71.999z"/>
	<path d="M179.536,71.897c1.437,0,2.185,0.723,2.185,0.723l-0.426,0.629c0,0-0.671-0.587-1.691-0.587
		c-1.41,0-2.261,1.028-2.261,2.312c0,1.395,0.952,2.354,2.21,2.354c1.037,0,1.7-0.748,1.7-0.748v-0.866h-0.978v-0.731h1.742V78
		h-0.739v-0.374c0-0.128,0.009-0.255,0.009-0.255h-0.018c0,0-0.654,0.73-1.844,0.73c-1.615,0-2.949-1.274-2.949-3.11
		C176.477,73.257,177.785,71.897,179.536,71.897z"/>
	<path d="M185.646,71.999h0.841V78h-0.841V71.999z"/>
	<path d="M190.312,71.999h0.833l2.669,3.901c0.221,0.323,0.501,0.867,0.501,0.867h0.018c0,0-0.06-0.535-0.06-0.867v-3.901h0.842V78
		h-0.825l-2.677-3.893c-0.221-0.332-0.502-0.876-0.502-0.876h-0.017c0,0,0.06,0.536,0.06,0.876V78h-0.842V71.999z"/>
	<path d="M198.974,76.674c0,0,0.637,0.646,1.529,0.646c0.562,0,1.037-0.315,1.037-0.885c0-1.3-2.906-1.02-2.906-2.864
		c0-0.935,0.807-1.674,1.938-1.674c1.113,0,1.699,0.604,1.699,0.604l-0.382,0.696c0,0-0.553-0.518-1.317-0.518
		c-0.638,0-1.088,0.399-1.088,0.875c0,1.241,2.906,0.909,2.906,2.855c0,0.927-0.714,1.691-1.903,1.691
		c-1.275,0-1.989-0.79-1.989-0.79L198.974,76.674z"/>
</g>
</svg>
