<?xml version="1.0" encoding="utf-8"?>
<!-- Generator: Adobe Illustrator 16.0.0, SVG Export Plug-In . SVG Version: 6.00 Build 0)  -->
<!DOCTYPE svg PUBLIC "-//W3C//DTD SVG 1.1//EN" "http://www.w3.org/Graphics/SVG/1.1/DTD/svg11.dtd">
<svg version="1.1" id="Layer_1" xmlns="http://www.w3.org/2000/svg" xmlns:xlink="http://www.w3.org/1999/xlink" x="0px" y="0px"
	 width="215px" height="79px" viewBox="0 0 215 79" enable-background="new 0 0 215 79" xml:space="preserve">
<g>
	<line fill="none" stroke="#666666" stroke-linecap="round" stroke-miterlimit="10" x1="43.5" y1="50" x2="43.5" y2="57"/>
	<line fill="none" stroke="#666666" stroke-linecap="round" stroke-miterlimit="10" x1="85.5" y1="50" x2="85.5" y2="57"/>
	<line fill="none" stroke="#666666" stroke-linecap="round" stroke-miterlimit="10" x1="127.5" y1="50" x2="127.5" y2="57"/>
	<line fill="none" stroke="#666666" stroke-linecap="round" stroke-miterlimit="10" x1="169.5" y1="50" x2="169.5" y2="57"/>
</g>
<line fill="none" stroke="#666666" stroke-linecap="round" stroke-miterlimit="10" x1="1.5" y1="50" x2="1.5" y2="57"/>
<line fill="none" stroke="#666666" stroke-linecap="round" stroke-miterlimit="10" x1="211.5" y1="50" x2="211.5" y2="57"/>
<line fill="none" stroke="#1A1A1A" stroke-linecap="round" stroke-miterlimit="10" x1="4" y1="53.5" x2="41" y2="53.5"/>
<line fill="none" stroke="#1A1A1A" stroke-linecap="round" stroke-miterlimit="10" x1="88" y1="53.5" x2="125" y2="53.5"/>
<line fill="none" stroke="#1A1A1A" stroke-linecap="round" stroke-miterlimit="10" x1="172" y1="53.5" x2="209" y2="53.5"/>
<g>
	<line fill="none" stroke="#666666" stroke-linecap="round" stroke-miterlimit="10" x1="0" y1="51.5" x2="213" y2="51.5"/>
	<line fill="none" stroke="#666666" stroke-linecap="round" stroke-miterlimit="10" x1="0" y1="55.5" x2="213" y2="55.5"/>
</g>
<g>
	<path d="M9.256,10.688C9.004,10.141,9.34,9.595,9.971,9.595h1.68c0.379,0,0.631,0.252,0.715,0.462l10.459,23.524h0.168
		l10.461-23.524c0.084-0.21,0.378-0.462,0.714-0.462h1.681c0.629,0,0.966,0.546,0.714,1.093L23.791,38.958
		c-0.126,0.252-0.378,0.462-0.714,0.462h-0.421c-0.293,0-0.588-0.21-0.713-0.462L9.256,10.688z"/>
	<path d="M42.68,10.393c0-0.42,0.336-0.798,0.799-0.798h16.551c0.462,0,0.799,0.378,0.799,0.798v1.219
		c0,0.42-0.337,0.798-0.799,0.798H45.915v10.25h12.056c0.42,0,0.799,0.378,0.799,0.798v1.219c0,0.462-0.379,0.798-0.799,0.798
		H45.915v10.712h14.114c0.462,0,0.799,0.378,0.799,0.798v1.218c0,0.421-0.337,0.799-0.799,0.799H43.479
		c-0.463,0-0.799-0.378-0.799-0.799V10.393z"/>
	<path d="M80.97,9.175c4.243,0,7.31,1.47,10.165,3.907c0.337,0.336,0.379,0.84,0.043,1.176c-0.379,0.378-0.84,0.798-1.176,1.176
		c-0.379,0.42-0.631,0.379-1.093-0.042c-2.143-1.89-5.167-3.276-7.981-3.276c-6.637,0-11.678,5.545-11.678,12.057
		c0,6.469,5.041,12.14,11.678,12.14c4.621,0,7.561-1.765,7.561-1.765v-5.881h-4.83c-0.462,0-0.799-0.336-0.799-0.756v-1.555
		c0-0.462,0.337-0.798,0.799-0.798h7.268c0.42,0,0.756,0.378,0.756,0.798v9.62c0,0.21-0.168,0.546-0.336,0.672
		c0,0-4.285,2.772-10.376,2.772c-8.401,0-15.165-6.68-15.165-15.08C65.805,15.938,72.568,9.175,80.97,9.175z"/>
	<path d="M96.405,10.688c-0.252-0.547,0.084-1.093,0.714-1.093H98.8c0.378,0,0.63,0.252,0.714,0.462l10.46,23.524h0.168
		l10.46-23.524c0.084-0.21,0.378-0.462,0.715-0.462h1.68c0.63,0,0.967,0.546,0.715,1.093l-12.771,28.271
		c-0.125,0.252-0.377,0.462-0.714,0.462h-0.42c-0.294,0-0.588-0.21-0.714-0.462L96.405,10.688z"/>
	<path d="M127.271,5.184c-0.168-0.336,0-0.672,0.252-0.798l6.301-3.528c0.252-0.168,0.883-0.252,1.092,0.126l0.757,1.513
		c0.168,0.336,0.084,0.756-0.253,0.882l-6.763,2.814c-0.588,0.252-0.798,0.252-0.966-0.084L127.271,5.184z M129.834,10.393
		c0-0.42,0.377-0.798,0.798-0.798h1.681c0.42,0,0.798,0.378,0.798,0.798v27.809c0,0.421-0.378,0.799-0.798,0.799h-1.681
		c-0.421,0-0.798-0.378-0.798-0.799V10.393z"/>
	<path d="M140.972,34.59c0.21-0.252,0.42-0.547,0.63-0.799c0.42-0.546,0.883-0.883,1.471-0.378c0.294,0.252,3.36,3.192,7.1,3.192
		c3.402,0,5.629-2.143,5.629-4.621c0-2.898-2.521-4.621-7.352-6.637c-4.621-2.017-7.394-3.906-7.394-8.695
		c0-2.857,2.269-7.478,8.947-7.478c4.117,0,7.184,2.142,7.184,2.142c0.252,0.127,0.756,0.631,0.252,1.429
		c-0.168,0.253-0.336,0.546-0.504,0.798c-0.378,0.589-0.798,0.757-1.47,0.379c-0.295-0.168-2.941-1.933-5.504-1.933
		c-4.453,0-5.797,2.856-5.797,4.62c0,2.814,2.143,4.453,5.671,5.924c5.671,2.311,9.325,4.453,9.325,9.326
		c0,4.368-4.158,7.561-9.072,7.561c-4.957,0-8.318-2.898-8.864-3.402C140.888,35.724,140.467,35.387,140.972,34.59z"/>
	<path d="M166.52,10.393c0-0.42,0.378-0.798,0.799-0.798h1.68c0.42,0,0.799,0.378,0.799,0.798v27.809
		c0,0.421-0.379,0.799-0.799,0.799h-1.68c-0.421,0-0.799-0.378-0.799-0.799V10.393z"/>
	<path d="M179.561,10.393c0-0.42,0.336-0.798,0.799-0.798h10.879c5.041,0,9.158,3.948,9.158,8.948c0,3.864-2.562,7.099-6.217,8.568
		l5.754,10.67c0.295,0.547,0,1.219-0.713,1.219h-2.143c-0.379,0-0.588-0.21-0.672-0.378l-5.588-11.132h-8.023v10.711
		c0,0.421-0.378,0.799-0.798,0.799h-1.638c-0.463,0-0.799-0.378-0.799-0.799V10.393z M191.029,24.717
		c3.234,0,6.049-2.688,6.049-6.133c0-3.192-2.814-5.923-6.049-5.923h-8.15v12.056H191.029z"/>
</g>
<g>
	<path d="M13.855,71.943h1.07l1.748,4.988c0.131,0.379,0.271,0.969,0.271,0.969h0.021c0,0,0.139-0.59,0.27-0.969l1.769-4.988h1.05
		L17.454,79h-0.989L13.855,71.943z"/>
	<path d="M24.129,71.943h4.098v0.859h-3.107v2.209h2.528v0.859h-2.528v2.27h3.277V79h-4.268V71.943z"/>
	<path d="M35.723,71.824c1.689,0,2.568,0.85,2.568,0.85l-0.5,0.739c0,0-0.789-0.689-1.988-0.689c-1.659,0-2.658,1.209-2.658,2.718
		c0,1.64,1.119,2.77,2.598,2.77c1.22,0,1.999-0.88,1.999-0.88v-1.02h-1.149v-0.859h2.049V79h-0.869v-0.439
		c0-0.15,0.01-0.301,0.01-0.301h-0.02c0,0-0.77,0.86-2.169,0.86c-1.899,0-3.468-1.499-3.468-3.658
		C32.125,73.423,33.664,71.824,35.723,71.824z"/>
	<path d="M46.916,76.971h-2.658L43.559,79h-1.02l2.539-7.057h1.039L48.656,79h-1.03L46.916,76.971z M45.588,72.914
		c0,0-0.16,0.639-0.28,0.998l-0.79,2.239h2.139l-0.779-2.239c-0.119-0.359-0.27-0.998-0.27-0.998H45.588z"/>
	<path d="M52.743,71.943h0.989v6.197h3.158V79h-4.147V71.943z"/>
	<path d="M61.025,71.943h4.098v0.859h-3.109v2.209h2.529v0.859h-2.529v2.27h3.279V79h-4.268V71.943z"/>
	<path d="M69.62,71.943H70.6l3.139,4.588c0.26,0.38,0.59,1.02,0.59,1.02h0.02c0,0-0.07-0.63-0.07-1.02v-4.588h0.99V79h-0.971
		l-3.147-4.578c-0.26-0.389-0.59-1.029-0.59-1.029h-0.021c0,0,0.07,0.631,0.07,1.029V79H69.62V71.943z"/>
	<path d="M83.379,71.824c1.688,0,2.568,0.85,2.568,0.85l-0.5,0.739c0,0-0.789-0.689-1.989-0.689c-1.659,0-2.658,1.209-2.658,2.718
		c0,1.64,1.119,2.77,2.599,2.77c1.219,0,1.998-0.88,1.998-0.88v-1.02h-1.148v-0.859h2.049V79h-0.869v-0.439
		c0-0.15,0.01-0.301,0.01-0.301h-0.021c0,0-0.77,0.86-2.169,0.86c-1.898,0-3.468-1.499-3.468-3.658
		C79.78,73.423,81.319,71.824,83.379,71.824z"/>
	<path d="M90.984,71.943h2.34c2.158,0,3.577,1.29,3.577,3.519c0,2.239-1.419,3.538-3.577,3.538h-2.34V71.943z M93.254,78.141
		c1.589,0,2.629-0.939,2.629-2.679c0-1.729-1.051-2.659-2.629-2.659h-1.279v5.338H93.254z"/>
	<path d="M101.443,71.943h0.99V79h-0.99V71.943z"/>
	<path d="M107.365,71.943h2.158c0.74,0,1.049,0.061,1.319,0.16c0.72,0.27,1.189,0.979,1.189,1.909c0,0.899-0.5,1.659-1.27,1.909
		v0.02c0,0,0.08,0.09,0.21,0.32l1.5,2.738h-1.12l-1.489-2.809h-1.51V79h-0.988V71.943z M109.773,75.332c0.77,0,1.25-0.49,1.25-1.279
		c0-0.52-0.201-0.89-0.561-1.09c-0.189-0.1-0.42-0.16-0.969-0.16h-1.141v2.529H109.773z"/>
	<path d="M128.627,76.971h-2.658L125.27,79h-1.02l2.538-7.057h1.04L130.366,79h-1.03L128.627,76.971z M127.298,72.914
		c0,0-0.16,0.639-0.28,0.998l-0.789,2.239h2.139l-0.779-2.239c-0.12-0.359-0.27-0.998-0.27-0.998H127.298z M127.598,70.186h1.039
		l-0.959,1.269h-0.81L127.598,70.186z"/>
	<path d="M142.764,71.943h0.989V79h-0.989V71.943z M143.563,70.186h1.039l-0.96,1.269h-0.809L143.563,70.186z"/>
	<path d="M148.678,77.441c0,0,0.75,0.759,1.799,0.759c0.66,0,1.22-0.37,1.22-1.039c0-1.529-3.418-1.199-3.418-3.368
		c0-1.1,0.95-1.969,2.278-1.969c1.31,0,2,0.709,2,0.709l-0.45,0.82c0,0-0.649-0.609-1.55-0.609c-0.749,0-1.279,0.469-1.279,1.029
		c0,1.459,3.418,1.068,3.418,3.357c0,1.09-0.839,1.989-2.238,1.989c-1.499,0-2.338-0.93-2.338-0.93L148.678,77.441z"/>
	<path d="M157.167,71.943h0.989v6.197h3.158V79h-4.147V71.943z"/>
	<path d="M169.372,76.971h-2.659L166.014,79h-1.02l2.539-7.057h1.039L171.111,79h-1.029L169.372,76.971z M168.043,72.914
		c0,0-0.16,0.639-0.279,0.998l-0.79,2.239h2.139l-0.78-2.239c-0.119-0.359-0.27-0.998-0.27-0.998H168.043z"/>
	<path d="M175.199,71.943h0.979l3.139,4.588c0.26,0.38,0.59,1.02,0.59,1.02h0.02c0,0-0.07-0.63-0.07-1.02v-4.588h0.99V79h-0.97
		l-3.147-4.578c-0.26-0.389-0.59-1.029-0.59-1.029h-0.021c0,0,0.069,0.631,0.069,1.029V79h-0.988V71.943z"/>
	<path d="M185.794,71.943h2.339c2.158,0,3.578,1.29,3.578,3.519c0,2.239-1.42,3.538-3.578,3.538h-2.339V71.943z M188.062,78.141
		c1.59,0,2.629-0.939,2.629-2.679c0-1.729-1.05-2.659-2.629-2.659h-1.279v5.338H188.062z"/>
	<path d="M196.252,71.943h0.99V79h-0.99V71.943z"/>
</g>
</svg>
